<svg xmlns="http://www.w3.org/2000/svg" xmlns:xlink="http://www.w3.org/1999/xlink" width="536" height="346"
x="50" y="20" rx="20" ry="20"><defs>
<!--original:
width="536" height="346"
-->
<rect id= "a" width="536" height="346"  rx="8" ry="8"
  stroke="#3F4242" stroke-width="20" />
  <!---->
<rect id="a" width="530" height="340" x="8"/>
</defs>
<g fill="none" fill-rule="evenodd"><mask id="b" fill="#fff"><use xlink:href="#a"/>
</mask><use fill="#E8EAF6" fill-rule="nonzero" xlink:href="#a"/>
<g mask="url(#b)"><path fill="#5265E1" d="M-3.53.197h547v59h-547z"/>
<g transform="translate(22.47 14.197)" fill="#FFF">
<circle cx="16" cy="16" r="16" opacity=".245"/><circle cx="477" cy="16" r="16" opacity=".104"/>
<g transform="translate(47 6)"><rect width="120" height="6" opacity=".75" rx="3"/>
<rect width="64" height="6" y="14" opacity=".25" rx="3"/></g></g></g><g mask="url(#b)">
<g transform="translate(57 93)"><rect width="261" height="316" fill="#FFF" rx="8"/>
<rect width="128" height="316" x="295" fill="#FFF" rx="8"/>
<rect width="120" height="6" x="78.47" y="38.197" fill="#242A45" opacity=".5" rx="3"/>
</g></g><g transform="translate(88.47 115.197)"><circle cx="16" cy="26" r="16" fill="#F98E5D"/>
<rect width="88" height="6" x="284" fill="#242A45" opacity=".25" rx="3"/>
<rect width="88" height="6" x="284" y="20" fill="#242A45" opacity=".25" rx="3"/>
<rect width="88" height="6" x="284" y="40" fill="#242A45" opacity=".25" rx="3"/>
<rect width="88" height="6" x="284" y="60" fill="#242A45" opacity=".25" rx="3"/>
<rect width="88" height="6" x="284" y="94" fill="#242A45" opacity=".25" rx="3"/>
<rect width="88" height="6" x="284" y="114" fill="#242A45" opacity=".25" rx="3"/>
<rect width="88" height="6" x="284" y="134" fill="#242A45" opacity=".25" rx="3"/>
<rect width="64" height="6" x="47" y="30" fill="#242A45" opacity=".25" rx="3"/></g>
<g transform="translate(88.47 181.197)"><circle cx="16" cy="16" r="16" fill="#6AC6D6"/>
<rect width="120" height="6" x="47" y="6" fill="#242A45" opacity=".5" rx="3"/>
<rect width="64" height="6" x="47" y="20" fill="#242A45" opacity=".25" rx="3"/></g>
<g transform="translate(88.47 237.197)"><circle cx="16" cy="16" r="16" fill="#A47ED4"/>
<rect width="120" height="6" x="47" y="6" fill="#242A45" opacity=".5" rx="3"/>
<rect width="64" height="6" x="47" y="20" fill="#242A45" opacity=".25" rx="3"/></g>
<g transform="translate(88.47 293.197)"><circle cx="16" cy="16" r="16" fill="#EC7878"/>
<rect width="120" height="6" x="47" y="6" fill="#242A45" opacity=".5" rx="3"/>
<rect width="64" height="6" x="47" y="20" fill="#242A45" opacity=".25" rx="3"/>
</g></g></svg>